# xmcd CD database file
#
# Track frame offsets:
#	150
#	21791
#	44718
#	61527
#	83611
#	106281
#	122882
#	150823
#	169919
#	206346
#	223486
#	240604
#	269193
#	291847
#	317800
#
# Disc length: 4407 seconds
#
# Revision: 0
# Processed by: cddbd v1.5.2PL0 Copyright (c) Steve Scherf et al.
# Submitted via: CDex 1.70beta2
#
DISCID=d811350f
DTITLE=Michael Maguire - Guitar To the Power Of Seven
DYEAR=2009
DGENRE=Jazz
TTITLE0=L'il Darlin'
TTITLE1=Ain't She Sweet
TTITLE2=In the Mood
TTITLE3=On a Slow Boat to China
TTITLE4=Basin Street Blues
TTITLE5=In a Mellow Tone
TTITLE6=Do Nothin' Till You Hear From Me
TTITLE7=Just Friends
TTITLE8=Love for Sale
TTITLE9=Pennies From Heaven
TTITLE10=Tuxedo Junction
TTITLE11=Smoke Gets In Your Eyes
TTITLE12=Is You Is Or Is You Ain't (My Baby)
TTITLE13=Days of Wine And Roses
TTITLE14=She Is The Reason
EXTD=YEAR: 2009
EXTT0=
EXTT1=
EXTT2=
EXTT3=
EXTT4=
EXTT5=
EXTT6=
EXTT7=
EXTT8=
EXTT9=
EXTT10=
EXTT11=
EXTT12=
EXTT13=
EXTT14=
PLAYORDER=
